<svg xmlns="http://www.w3.org/2000/svg" width="17" height="16" viewBox="0 0 17 16">
    <g fill="#FFF" fill-rule="nonzero">
        <path d="M4.03 15.353H.058V5.029h3.97zM2.033 4.235H2.01C.826 4.235.059 3.353.059 2.25c0-1.128.79-1.985 1.997-1.985 1.208 0 1.95.857 1.973 1.985 0 1.103-.765 1.985-1.996 1.985zM16.735 15.353h-3.641V9.54c0-1.46-.527-2.456-1.845-2.456-1.006 0-1.605.671-1.868 1.321-.096.232-.12.555-.12.88v6.067H5.617s.048-9.844 0-10.863H9.26v1.54c.484-.739 1.348-1.795 3.282-1.795 2.397 0 4.193 1.552 4.193 4.889v6.229z"/>
    </g>
</svg>
