<svg xmlns="http://www.w3.org/2000/svg" width="30" height="34" viewBox="0 0 30 34">
    <g fill="#FFFDFD" fill-rule="evenodd">
        <path d="M17.082 7.26c2.67 0 5.088 1.06 6.84 2.776l5.234-5.133A17.196 17.196 0 0 0 17.082 0C7.648 0 0 7.5 0 16.753c0 5.727 2.932 10.78 7.402 13.803V16.753c0-5.243 4.334-9.493 9.68-9.493M17.082 26.247a9.814 9.814 0 0 1-3.701-.72v7.58a17.44 17.44 0 0 0 3.7.4c4.643 0 8.85-1.82 11.929-4.766l-5.234-5.134a9.746 9.746 0 0 1-6.694 2.64"/>
        <path d="M19.694 14.182a3.583 3.583 0 0 1 1.089 2.571c0 1.076-.48 2.04-1.238 2.705l-2.092-2.052 2.092 2.052a3.724 3.724 0 0 1-2.463.925c-2.044 0-3.701-1.625-3.701-3.63 0-2.004 1.657-3.63 3.7-3.63 1.02 0 1.944.405 2.613 1.06z"/>
    </g>
</svg>
